<svg id="person" xmlns="http://www.w3.org/2000/svg" xmlns:xlink="http://www.w3.org/1999/xlink" width="24" height="24" viewBox="0 0 24 24">
  <defs>
    <clipPath id="clip-path">
      <rect id="Rectangle_203" data-name="Rectangle 203" width="24" height="24" fill="#3c4257" opacity="0"/>
    </clipPath>
  </defs>
  <g id="Mask_Group_9" data-name="Mask Group 9" clip-path="url(#clip-path)">
    <g id="Layer_2" data-name="Layer 2">
      <g id="log-out">
        <rect id="Rectangle_208" data-name="Rectangle 208" width="24" height="24" transform="translate(24) rotate(90)" fill="#3c4257" opacity="0"/>
        <path id="Path_267" data-name="Path 267" d="M7,6A1,1,0,0,0,7,4H5A1,1,0,0,0,4,5V19a1,1,0,0,0,1,1H7a1,1,0,0,0,0-2H6V6Z" fill="#3c4257"/>
        <path id="Path_268" data-name="Path 268" d="M20.82,11.42,18,7.42a1,1,0,1,0-1.63,1.16L18.09,11H10a1,1,0,0,0,0,2h8l-1.8,2.4a1,1,0,0,0,1.6,1.2l3-4a1,1,0,0,0,.02-1.18Z" fill="#3c4257"/>
      </g>
    </g>
  </g>
</svg>
