<?xml version="1.0" encoding="utf-8"?>
<!-- Generator: Adobe Illustrator 24.1.2, SVG Export Plug-In . SVG Version: 6.00 Build 0)  -->
<svg version="1.1" id="Layer_1" xmlns="http://www.w3.org/2000/svg" xmlns:xlink="http://www.w3.org/1999/xlink" x="0px" y="0px"
	 viewBox="0 0 164.3 60.2" style="enable-background:new 0 0 164.3 60.2;" xml:space="preserve">
<style type="text/css">
	.st0{fill:#AF3D70;}
	.st1{enable-background:new    ;}
</style>
<g id="Group_194" transform="translate(-877.999 -78.983)">
	<g id="Subtraction_1">
		<path class="st0" d="M908.3,139.2h-0.2c-4,0-8-0.8-11.7-2.4c-3.6-1.5-6.8-3.7-9.6-6.4c-2.7-2.7-4.9-6-6.4-9.6
			c-1.6-3.7-2.4-7.7-2.4-11.7s0.8-8,2.4-11.7c1.5-3.6,3.7-6.8,6.4-9.6c2.7-2.7,6-4.9,9.6-6.4c3.7-1.6,7.7-2.4,11.7-2.4h0.2
			c4,0,8,0.8,11.7,2.4c3.6,1.5,6.8,3.7,9.6,6.4c2.7,2.7,4.9,6,6.4,9.6c1.6,3.7,2.4,7.7,2.4,11.7s-0.8,8-2.4,11.7
			c-1.5,3.6-3.7,6.8-6.4,9.6c-2.7,2.7-6,4.9-9.6,6.4C916.3,138.4,912.3,139.2,908.3,139.2z M906.2,118.6c-0.8,0-1.7,0.3-2.3,0.9
			c-1.3,1.3-1.3,3.4,0,4.7l1.9,1.9c0.1,0.1,0.2,0.1,0.2,0.1c0.1,0,0.2,0,0.2-0.1l2.1-2.1c0.6-0.6,0.9-1.4,0.9-2.3
			c0-0.8-0.3-1.7-0.9-2.3C907.8,118.9,907,118.6,906.2,118.6z M911.1,112.1L911.1,112.1c-0.1,0.1-0.2,0.2-0.3,0.3
			c-0.5,0.7-0.8,1.6-0.8,2.4c0,0.9,0.3,1.8,0.9,2.6l0.3,0.3l0,0c0.5,0.4,1.1,0.7,1.7,0.7c0.6,0,1.2-0.2,1.7-0.6l3.5-3.5l1-1
			c0.2-0.1,0.3-0.3,0.5-0.5c1.9-2,2.9-4.6,2.9-7.3c0-5.9-4.8-10.6-10.6-10.6c-2.7,0-5.3,1-7.3,2.9l-0.4,0.4l-1.3,1.3l-3,3l-0.2,0.2
			l-0.1,0.1c-0.9,1.1-0.7,2.7,0.4,3.6l0.1,0.1l0,0c0.7,0.6,1.6,0.9,2.5,0.9s1.7-0.3,2.4-0.8c0.1-0.1,0.2-0.2,0.3-0.3l0,0
			c0.1-0.1,0.1-0.1,0.2-0.2l0,0l0,0l0,0l0.4-0.4l0.7-0.7l2.4-2.4c0.8-0.8,1.8-1.2,2.9-1.2c1.1,0,2.1,0.4,2.8,1.1
			c1.6,1.6,1.7,4.2,0.1,5.8l-0.1,0.1l-1.5,1.5l-0.5,0.5l-0.7,0.7l-0.6,0.6l0,0l0,0C911.3,111.9,911.2,112,911.1,112.1L911.1,112.1
			L911.1,112.1z M895.7,107.8c-0.8,0-1.7,0.3-2.3,0.9l-2.1,2.1c-0.1,0.1-0.1,0.3,0,0.5l1.9,1.9c0.6,0.6,1.5,1,2.3,1
			c0.9,0,1.7-0.3,2.3-1c0.6-0.6,0.9-1.4,0.9-2.3c0-0.8-0.3-1.7-0.9-2.3C897.4,108.2,896.5,107.8,895.7,107.8L895.7,107.8z"/>
	</g>
	<g class="st1">
		<path class="st0" d="M957.5,107.4c-1-0.3-1.9-0.7-2.5-1s-1.2-0.6-1.6-1c-1.1-0.9-1.6-2.1-1.6-3.7c0-1.7,0.6-3,1.9-4
			c1.3-1,3-1.5,5.3-1.5c1.8,0,3.2,0.3,4.3,0.8c1,0.5,1.5,1.2,1.5,2.2c0,0.5-0.1,1-0.4,1.3c-0.3,0.4-0.6,0.6-1,0.6
			c-0.3,0-0.6-0.1-1-0.2c-1-0.3-2-0.5-3-0.5c-0.9,0-1.5,0.1-1.9,0.3c-0.4,0.3-0.6,0.6-0.6,0.9s0.1,0.5,0.3,0.7s0.6,0.4,1.2,0.5
			l1.5,0.5c2,0.6,3.4,1.4,4.3,2.3c0.9,0.9,1.3,2.1,1.3,3.5c0,1.7-0.7,3-2,4c-1.4,1-3.2,1.5-5.6,1.5c-1.9,0-3.4-0.3-4.6-0.9
			c-1.2-0.6-1.7-1.4-1.7-2.4c0-0.6,0.1-1,0.4-1.4c0.3-0.4,0.7-0.6,1.1-0.6c0.3,0,0.6,0.1,1.1,0.3c1.1,0.6,2.3,0.9,3.5,0.9
			c1,0,1.6-0.1,2-0.4s0.6-0.6,0.6-1c0-0.3-0.1-0.6-0.4-0.8s-0.7-0.4-1.4-0.7L957.5,107.4z"/>
		<path class="st0" d="M976.4,105.4c0-0.6-0.2-1-0.5-1.3s-0.8-0.4-1.4-0.4c-0.9,0-1.6,0.2-2.1,0.6v8.7c0,0.7-0.2,1.1-0.5,1.3
			c-0.3,0.2-0.7,0.3-1.1,0.3h-0.6c-1,0-1.7-0.2-2.1-0.5s-0.6-0.9-0.6-1.8v-8.7c0-0.5,0.1-0.9,0.3-1.2c0.2-0.3,0.5-0.6,1-1
			c0.7-0.5,1.6-0.9,2.6-1.1c1-0.3,2.1-0.4,3.2-0.4c2.2,0,3.9,0.5,5,1.4c1.2,1,1.8,2.3,1.8,4v7.7c0,0.7-0.2,1.1-0.5,1.3
			c-0.3,0.2-0.7,0.3-1.1,0.3h-0.6c-1,0-1.7-0.2-2.1-0.5c-0.4-0.3-0.6-0.9-0.6-1.8v-6.9H976.4z"/>
		<path class="st0" d="M994.9,101.2c1.2,0.9,1.8,2.2,1.8,4v6.5c0,0.4-0.1,0.8-0.3,1.1c-0.2,0.3-0.6,0.6-1.1,0.9
			c-1.2,0.8-3,1.1-5.3,1.1c-2.1,0-3.8-0.4-5-1.2c-1.2-0.8-1.8-2-1.8-3.5c0-1.3,0.4-2.4,1.2-3.1s2-1.2,3.7-1.3l3.8-0.4v-0.2
			c0-1-1-1.6-2.9-1.6c-0.8,0-1.8,0.1-2.9,0.4c-0.4,0.1-0.7,0.1-0.8,0.1c-0.4,0-0.7-0.2-0.9-0.5s-0.3-0.7-0.3-1.2s0.1-0.9,0.3-1.2
			c0.2-0.3,0.6-0.6,1.1-0.8c1-0.4,2.4-0.6,4.1-0.6C992,99.8,993.7,100.3,994.9,101.2z M991.1,111.1c0.4-0.1,0.7-0.2,0.8-0.3v-2.3
			l-2.1,0.2c-1.2,0.1-1.9,0.5-1.9,1.2c0,0.9,0.7,1.3,2,1.3C990.3,111.2,990.7,111.2,991.1,111.1z"/>
		<path class="st0" d="M1000.6,114.3c-0.7,0-1.2-0.2-1.6-0.6c-0.3-0.4-0.5-0.9-0.5-1.6s0.3-1.4,1-2.2l5-5.9h-4.1
			c-0.9,0-1.4-0.3-1.6-0.9c-0.1-0.4-0.1-0.8-0.1-1c0-1.3,0.6-1.9,1.7-1.9h8.1c0.7,0,1.2,0.2,1.6,0.6c0.3,0.4,0.5,0.9,0.5,1.6
			s-0.3,1.4-1,2.2l-4.9,5.9h4.5c0.9,0,1.4,0.3,1.6,0.9c0.1,0.4,0.1,0.8,0.1,1c0,1.3-0.6,1.9-1.7,1.9H1000.6z"/>
		<path class="st0" d="M1014.8,114.3c-0.7,0-1.2-0.2-1.6-0.6c-0.3-0.4-0.5-0.9-0.5-1.6s0.3-1.4,1-2.2l5-5.9h-4.1
			c-0.9,0-1.4-0.3-1.6-0.9c-0.1-0.4-0.1-0.8-0.1-1c0-1.3,0.6-1.9,1.7-1.9h8.1c0.7,0,1.2,0.2,1.6,0.6c0.3,0.4,0.5,0.9,0.5,1.6
			s-0.3,1.4-1,2.2l-4.9,5.9h4.5c0.9,0,1.4,0.3,1.6,0.9c0.1,0.4,0.1,0.8,0.1,1c0,1.3-0.6,1.9-1.7,1.9H1014.8z"/>
		<path class="st0" d="M1028.3,106.9c-0.5-1.6-1-3.1-1.4-4.8c-0.1-0.2-0.1-0.4-0.1-0.6c0-0.5,0.2-0.9,0.7-1.2c0.5-0.3,1-0.4,1.7-0.4
			c0.8,0,1.3,0.1,1.7,0.4s0.7,0.8,0.9,1.6l2.3,8h0.1c0.4-1.1,0.8-2.4,1.2-4c0.4-1.6,0.8-3,1-4.3c0.1-0.7,0.4-1.1,0.8-1.3
			c0.4-0.2,1-0.3,1.7-0.3c1.6,0,2.3,0.6,2.3,1.9c0,0.9-0.2,2.2-0.7,3.8s-1,3.3-1.8,5c-0.8,1.9-1.6,3.5-2.4,4.9s-1.6,2.4-2.4,3
			c-0.7,0.6-1.6,0.9-2.6,0.9c-0.6,0-1.1-0.1-1.5-0.4s-0.8-0.6-1-1.1c-0.1-0.2-0.2-0.4-0.2-0.6c0-0.4,0.2-0.8,0.7-1.2
			c0.9-0.7,1.8-1.6,2.6-2.7c-0.3-0.1-0.7-0.3-1-0.7c-0.4-0.4-0.8-1.1-1.2-2C1029.3,109.8,1028.9,108.5,1028.3,106.9z"/>
	</g>
</g>
</svg>
