<?xml version="1.0" encoding="utf-8"?>
<!-- Generator: Adobe Illustrator 22.1.0, SVG Export Plug-In . SVG Version: 6.00 Build 0)  -->
<svg version="1.1" xmlns="http://www.w3.org/2000/svg" xmlns:xlink="http://www.w3.org/1999/xlink" x="0px" y="0px"
	 viewBox="0 0 1000 1000" style="enable-background:new 0 0 1000 1000;" xml:space="preserve">
<style type="text/css">
	.st0{fill:#fff;}
	.st1{fill:#fff;stroke:#1A1818;stroke-miterlimit:10;}
	.st2{fill:none;}
</style>
<g id="Dot_Top">
	<path id="Rectangle_52" class="st0" d="M155,565.6l-48.7-48.7c-3.4-3.4-3.4-8.9,0-12.3h0l53.3-53.3c31.5-31.5,82.7-31.5,114.2,0
		l0,0c31.5,31.5,31.6,82.7,0,114.2l0,0C241,598.4,187.8,598.4,155,565.6L155,565.6z"/>
	<path id="Path_128" class="st1" d="M541.1,308.7"/>
	<path id="Path_129" class="st0" d="M378,470.4"/>
	<path class="st0" d="M612.9,529.5l-4.6,4.6c0,0,0.1-0.1,0.1-0.1C609.8,532.4,611.3,530.9,612.9,529.5z"/>
	<path id="Path_135" class="st1" d="M536.5,753.6"/>
	<path id="Path_136" class="st1" d="M552,298.2"/>
	<line class="st2" x1="608.3" y1="534.1" x2="585.6" y2="556.8"/>
</g>
<g id="Dot_Bottom">
	<path id="Rectangle_51" class="st0" d="M538.8,722.9L538.8,722.9c31.5,31.6,31.5,82.7,0,114.2l-53.2,53.2c-3.4,3.4-8.9,3.4-12.3,0
		l0,0l-48.7-48.7c-32.8-32.8-32.8-86,0-118.8l0,0C456.1,691.4,507.2,691.4,538.8,722.9z"/>
</g>
<g id="Main">
	<path class="st0" d="M896,368.9L896,368.9c0.1,68.5-26,134.4-73,184.2c-3.8,4-7.7,8-11.7,11.7L786,590.1l0.1,0.1l-89,89
		c-24.4,21.8-61.4,21.6-85.6-0.4l-0.4-0.4l-7.6-8.3c-29.8-36.7-30.9-89-2.7-126.9c2.3-3.1,4.8-6.1,7.5-9l20.6-20.6l-0.1-0.1l70-70
		l2.6-2.6c40.5-40.2,40.7-105.7,0.5-146.2c-40.2-40.5-105.7-40.7-146.2-0.5c-1,1-2,2-2.9,3L522.8,327l0,0l-46.5,46.5l-9.5,9.4
		c-1.5,1.6-3.1,3.2-4.7,4.7l-0.3,0.3c-2.7,2.6-5.6,5-8.6,7.2c-37.7,28-89.5,27.1-126.2-2.1l-1.6-1.3c-27.8-21.9-32.5-62.2-10.6-89.9
		l2.7-3.2l4.6-4.6l43.7-43.8l-0.1-0.1l65.7-65.7l11.1-11.1c108-101.9,278.2-96.9,380.1,11.1C869.8,234.3,896,300.3,896,368.9z"/>
</g>
</svg>
