<svg id="symbol" xmlns="http://www.w3.org/2000/svg" width="46.722" height="46.722" viewBox="0 0 46.722 46.722">
  <path id="Path_155" data-name="Path 155" d="M10.95,114.431a12.334,12.334,0,0,1,1.746-6.34v-7.876H4.82a23.373,23.373,0,0,0,0,28.432H12.7v-7.876A12.334,12.334,0,0,1,10.95,114.431Z" transform="translate(0 -91.07)" fill="#fbbd00"/>
  <path id="Path_156" data-name="Path 156" d="M201.475,374.7,196,380.174l5.475,5.475a23.184,23.184,0,0,0,14.216-4.82v-7.867h-7.868A12.409,12.409,0,0,1,201.475,374.7Z" transform="translate(-178.114 -338.927)" fill="#0f9d58"/>
  <path id="Path_157" data-name="Path 157" d="M60.7,325.477l-7.876,7.876a23.733,23.733,0,0,0,2.022,2.3A23.208,23.208,0,0,0,71.364,342.5v-10.95A12.416,12.416,0,0,1,60.7,325.477Z" transform="translate(-48.003 -295.776)" fill="#31aa52"/>
  <path id="Path_158" data-name="Path 158" d="M279.361,202.678a23.559,23.559,0,0,0-.383-4.232l-.205-1.122H256v10.95h11.083a12.355,12.355,0,0,1-4.735,5.077l7.868,7.867a23.739,23.739,0,0,0,2.3-2.022A23.208,23.208,0,0,0,279.361,202.678Z" transform="translate(-232.639 -179.318)" fill="#3c79e6"/>
  <path id="Path_159" data-name="Path 159" d="M210.251,14.585l.968.968,7.743-7.743-.968-.968A23.208,23.208,0,0,0,201.475,0L196,5.475l5.475,5.475A12.33,12.33,0,0,1,210.251,14.585Z" transform="translate(-178.114 0)" fill="#cf2d48"/>
  <path id="Path_160" data-name="Path 160" d="M71.363,10.95V0A23.209,23.209,0,0,0,54.844,6.842a23.713,23.713,0,0,0-2.022,2.3L60.7,17.021a12.416,12.416,0,0,1,10.665-6.07Z" transform="translate(-48.002 0)" fill="#eb4132"/>
</svg>
