<svg xmlns="http://www.w3.org/2000/svg" width="45.621" height="48.419" viewBox="0 0 45.621 48.419">
  <g id="Group_192" data-name="Group 192" transform="translate(-470.741 -112.547)">
    <g id="Group_191" data-name="Group 191" transform="translate(470.741 112.547)">
      <g id="Group_190" data-name="Group 190" transform="translate(0 0)">
        <path id="Path_201" data-name="Path 201" d="M759.217,281.165a3.9,3.9,0,0,1,1,0,3.431,3.431,0,0,0,.049-1.9c-.241-1.152-.567-1.85-1.24-1.741s-.7.943-.457,2.1A3.894,3.894,0,0,0,759.217,281.165Z" transform="translate(-724.901 -258.285)"/>
        <path id="Path_202" data-name="Path 202" d="M682.926,305.726c.482.211.778.351.894.229.074-.076.052-.222-.063-.41a2.831,2.831,0,0,0-1.246-1,3.4,3.4,0,0,0-3.3.4c-.322.236-.628.563-.584.762.014.064.062.113.176.128a20.6,20.6,0,0,1,2.264-.5A3.94,3.94,0,0,1,682.926,305.726Z" transform="translate(-654.39 -281.934)"/>
        <path id="Path_203" data-name="Path 203" d="M695.87,321.29a2.271,2.271,0,0,0-1.2.5.766.766,0,0,0-.306.478.145.145,0,0,0,.048.114.15.15,0,0,0,.1.039,1.916,1.916,0,0,0,.459-.127,3.994,3.994,0,0,1,2.02-.21c.315.035.464.055.534-.053a.178.178,0,0,0-.018-.2A1.826,1.826,0,0,0,695.87,321.29Z" transform="translate(-668.304 -296.945)"/>
        <path id="Path_204" data-name="Path 204" d="M744.3,329.424a.658.658,0,1,0-.5-.942C743.648,328.793,743.87,329.215,744.3,329.424Z" transform="translate(-711.931 -303.049)"/>
        <path id="Path_205" data-name="Path 205" d="M767.051,318.3c-.346-.006-.633.374-.641.849s.266.864.612.87.633-.374.641-.849S767.4,318.3,767.051,318.3Z" transform="translate(-731.947 -294.314)"/>
        <path id="Path_206" data-name="Path 206" d="M530.529,350.139c-.086-.108-.228-.075-.364-.043a1.3,1.3,0,0,1-.323.045.7.7,0,0,1-.591-.3,1.1,1.1,0,0,1,.026-1.016c.023-.056.051-.118.081-.185a3,3,0,0,0,.221-2.658,2.355,2.355,0,0,0-1.8-1.311,2.317,2.317,0,0,0-1.985.716,2.855,2.855,0,0,0-.737,2.4c.054.149.139.19.2.2.13.018.323-.077.444-.4.009-.023.02-.06.034-.106a3.2,3.2,0,0,1,.318-.747,1.36,1.36,0,0,1,.867-.6,1.39,1.39,0,0,1,1.06.2,1.357,1.357,0,0,1,.514,1.635,3.815,3.815,0,0,0-.268,1.454,1.443,1.443,0,0,0,1.29,1.49,1.1,1.1,0,0,0,1.039-.518A.222.222,0,0,0,530.529,350.139Z" transform="translate(-518.673 -317.599)"/>
        <path id="Path_207" data-name="Path 207" d="M514.578,143.2c-.021-.075-.158-.577-.347-1.182a9.566,9.566,0,0,0-.384-1.031,3.738,3.738,0,0,0,.67-2.722,3.446,3.446,0,0,0-1-1.946,8.14,8.14,0,0,0-3.536-1.751c-.2-.055-.844-.233-.9-.25,0-.037-.047-2.124-.087-3.019a10.346,10.346,0,0,0-.4-2.654,7.109,7.109,0,0,0-1.838-3.281c2.243-2.325,3.644-4.887,3.64-7.085-.006-4.226-5.2-5.5-11.592-2.856L497.45,116c-.006-.006-2.45-2.4-2.487-2.436-7.292-6.361-30.092,18.982-22.8,25.137l1.593,1.349a7.83,7.83,0,0,0-.443,3.616,7.124,7.124,0,0,0,2.46,4.572,7.484,7.484,0,0,0,4.827,1.944c2.837,6.537,9.318,10.547,16.918,10.773,8.152.242,15-3.583,17.863-10.454a14.417,14.417,0,0,0,.983-4.573C516.362,144,515.272,143.2,514.578,143.2Zm-33.353,5.145a3.936,3.936,0,0,1-.755.053,5.88,5.88,0,0,1-5.386-4.911c-.292-2.906,1.193-5.142,3.821-5.672a4.474,4.474,0,0,1,1.1-.079c1.473.081,3.643,1.212,4.139,4.42C484.587,145,483.889,147.892,481.225,148.346Zm-2.75-12.269a6.267,6.267,0,0,0-3.96,2.527,10.775,10.775,0,0,1-1.683-1.622c-1.408-2.674,1.537-7.872,3.594-10.807,5.084-7.255,13.046-12.746,16.732-11.75.6.17,2.584,2.471,2.584,2.471a51.911,51.911,0,0,0-7.1,4.894A32.242,32.242,0,0,0,478.475,136.078ZM504.32,147.26a.145.145,0,0,0,.084-.145.136.136,0,0,0-.149-.121,17.241,17.241,0,0,1-7.5-.763c.4-1.29,1.452-.824,3.047-.7a22.283,22.283,0,0,0,7.356-.8,16.858,16.858,0,0,0,5.5-2.736,11.083,11.083,0,0,1,.768,2.62,1.278,1.278,0,0,1,.807.147c.347.214.6.658.428,1.806a10,10,0,0,1-2.8,5.487,11.529,11.529,0,0,1-3.36,2.511,14.2,14.2,0,0,1-2.194.927c-5.776,1.886-11.688-.188-13.594-4.641a7.16,7.16,0,0,1-.382-1.052,9.234,9.234,0,0,1,2.033-8.672h0a.784.784,0,0,0,.269-.516.911.911,0,0,0-.208-.49c-.754-1.094-3.366-2.957-2.842-6.564a4.916,4.916,0,0,1,4.755-4.308c.178.009.357.02.535.031.916.054,1.714.172,2.468.2a4.936,4.936,0,0,0,3.739-1.248,2.9,2.9,0,0,1,1.431-.809,1.748,1.748,0,0,1,.547-.053,1.806,1.806,0,0,1,.921.294c1.077.717,1.23,2.453,1.286,3.722.032.725.119,2.479.149,2.982.068,1.151.371,1.314.983,1.515.344.113.664.2,1.135.33a6.4,6.4,0,0,1,2.8,1.328,1.762,1.762,0,0,1,.511,1c.168,1.226-.952,2.741-3.918,4.118a19.908,19.908,0,0,1-9.892,1.583l-.952-.107c-2.174-.293-3.414,2.516-2.109,4.441.841,1.24,3.131,2.048,5.422,2.048,5.253,0,9.292-2.243,10.794-4.18a2.016,2.016,0,0,0,.12-.171c.074-.111.013-.173-.079-.11-1.227.84-6.678,4.173-12.508,3.17a7.759,7.759,0,0,1-1.355-.368,2.432,2.432,0,0,1-1.72-1.8C501.357,148.635,504.32,147.26,504.32,147.26Zm-7.453-.88h0v0Zm-9-20.235a21.473,21.473,0,0,1,6.025-4.924.078.078,0,0,1,.1.107,5.813,5.813,0,0,0-.56,1.366.081.081,0,0,0,.125.085,11.739,11.739,0,0,1,5.289-1.867.083.083,0,0,1,.056.149,4.5,4.5,0,0,0-.832.835.08.08,0,0,0,.063.129,10.363,10.363,0,0,1,4.422,1.159c.083.046.024.206-.069.185a18,18,0,0,0-8.01.021,18.4,18.4,0,0,0-6.5,2.875A.082.082,0,0,1,487.865,126.145Z" transform="translate(-470.741 -112.547)"/>
      </g>
    </g>
  </g>
</svg>
