<svg xmlns="http://www.w3.org/2000/svg" width="26" height="27" viewBox="0 0 26 27">
  <g id="Group_214" data-name="Group 214" transform="translate(-1626.954 -31.916)">
    <g id="Layer_2" data-name="Layer 2" transform="translate(1627 32.925)">
      <g id="bell">
        <rect id="Rectangle_128" data-name="Rectangle 128" width="26" height="26" transform="translate(-0.046 -0.009)" fill="#a7b4cc" opacity="0"/>
        <path id="Path_211" data-name="Path 211" d="M21.343,15.831l-1.885-1.9V9.266a7.183,7.183,0,0,0-6.094-7.2A7.057,7.057,0,0,0,5.387,9.046v4.89L3.5,15.831a1.717,1.717,0,0,0,1.215,2.921H8.235v.356a4.021,4.021,0,0,0,4.188,3.832,4.021,4.021,0,0,0,4.188-3.832v-.356h3.518a1.717,1.717,0,0,0,1.215-2.921Zm-6.827,3.277a1.968,1.968,0,0,1-2.094,1.738,1.968,1.968,0,0,1-2.094-1.738v-.356h4.188Zm-8.889-2.45,1.235-1.235a2.094,2.094,0,0,0,.618-1.487V9.046a4.952,4.952,0,0,1,1.7-3.727,4.89,4.89,0,0,1,3.916-1.225,5.089,5.089,0,0,1,4.272,5.13v4.712a2.094,2.094,0,0,0,.607,1.487l1.246,1.235Z" transform="translate(0.531 0.484)" fill="#a7b4cc"/>
      </g>
    </g>
    <g id="Ellipse_10" data-name="Ellipse 10" transform="translate(1640.954 31.916)" fill="#a7b4cc" stroke="#cfd5e1" stroke-width="1">
      <circle cx="4.5" cy="4.5" r="4.5" stroke="none"/>
      <circle cx="4.5" cy="4.5" r="4" fill="none"/>
    </g>
  </g>
</svg>
