<svg id="Layer_1" data-name="Layer 1" xmlns="http://www.w3.org/2000/svg" viewBox="0 0 89.64 23.2">
  <g id="Snazzy" style="isolation: isolate">
    <g style="isolation: isolate">
      <path d="M6.15,23a22.76,22.76,0,0,1-2.51-1A7.51,7.51,0,0,1,2,21,4.55,4.55,0,0,1,.44,17.36a4.71,4.71,0,0,1,1.92-4,8.69,8.69,0,0,1,5.3-1.45,9.76,9.76,0,0,1,4.26.76,2.38,2.38,0,0,1,1.54,2.2,2.29,2.29,0,0,1-.38,1.33,1.13,1.13,0,0,1-1,.56,2.37,2.37,0,0,1-.95-.21,9.32,9.32,0,0,0-3-.49,4.07,4.07,0,0,0-1.92.35,1.1,1.1,0,0,0-.61.93A.85.85,0,0,0,6,18a3.85,3.85,0,0,0,1.16.53l1.54.5A10.47,10.47,0,0,1,13,21.42,4.88,4.88,0,0,1,14.38,25a4.72,4.72,0,0,1-2,4,9.43,9.43,0,0,1-5.62,1.47,10,10,0,0,1-4.57-.89A2.72,2.72,0,0,1,.44,27.13a2.33,2.33,0,0,1,.44-1.44,1.33,1.33,0,0,1,1.06-.59A2.31,2.31,0,0,1,3,25.45a7.38,7.38,0,0,0,3.53.9,3.39,3.39,0,0,0,2-.44,1.26,1.26,0,0,0,.57-1,1,1,0,0,0-.37-.83,5,5,0,0,0-1.39-.65Z" transform="translate(-0.44 -11.93)" fill="#fff"/>
      <path d="M25.11,21.07a1.65,1.65,0,0,0-.49-1.31,2,2,0,0,0-1.39-.43,3.63,3.63,0,0,0-2.12.58v8.73A1.5,1.5,0,0,1,20.62,30a1.83,1.83,0,0,1-1.13.3l-.58,0a3.26,3.26,0,0,1-2.1-.52,2.23,2.23,0,0,1-.63-1.8v-8.7A2.42,2.42,0,0,1,16.47,18a3.33,3.33,0,0,1,1-.95A8.51,8.51,0,0,1,20,15.89a12,12,0,0,1,3.22-.42,7.78,7.78,0,0,1,5,1.44,4.83,4.83,0,0,1,1.77,4v7.75A1.5,1.5,0,0,1,29.55,30a1.82,1.82,0,0,1-1.13.3l-.58,0a3.26,3.26,0,0,1-2.1-.52,2.23,2.23,0,0,1-.63-1.8Z" transform="translate(-0.44 -11.93)" fill="#fff"/>
      <path d="M43.59,16.82a4.63,4.63,0,0,1,1.79,4v6.49a2,2,0,0,1-.33,1.15,3.22,3.22,0,0,1-1.09.91,10.16,10.16,0,0,1-5.3,1.13,8.77,8.77,0,0,1-5-1.2,4,4,0,0,1-1.75-3.52,3.91,3.91,0,0,1,1.19-3.08,6.41,6.41,0,0,1,3.68-1.33l3.8-.41v-.2c0-1-1-1.57-2.87-1.57a12.06,12.06,0,0,0-2.87.41,3.9,3.9,0,0,1-.84.15,1,1,0,0,1-.9-.48,2,2,0,0,1-.32-1.18,1.93,1.93,0,0,1,.33-1.19,2.81,2.81,0,0,1,1.15-.78,11.27,11.27,0,0,1,4.14-.61A8.49,8.49,0,0,1,43.59,16.82Zm-3.79,10a2.27,2.27,0,0,0,.83-.28V24.17l-2.09.17c-1.24.08-1.86.49-1.86,1.22s.66,1.31,2,1.31A7.21,7.21,0,0,0,39.8,26.77Z" transform="translate(-0.44 -11.93)" fill="#fff"/>
      <path d="M49.33,30a1.94,1.94,0,0,1-1.55-.59,2.41,2.41,0,0,1-.51-1.61,3.56,3.56,0,0,1,1-2.21l5-5.86H49.1c-.91,0-1.43-.3-1.57-.89a4.74,4.74,0,0,1-.15-1c0-1.28.56-1.92,1.66-1.92h8.09a1.91,1.91,0,0,1,1.55.6,2.39,2.39,0,0,1,.51,1.61,3.6,3.6,0,0,1-1,2.2L53.36,26.2h4.47c.9,0,1.43.3,1.56.9a4.65,4.65,0,0,1,.15,1c0,1.27-.55,1.91-1.66,1.91Z" transform="translate(-0.44 -11.93)" fill="#fff"/>
      <path d="M63.48,30a1.94,1.94,0,0,1-1.55-.59,2.41,2.41,0,0,1-.51-1.61,3.56,3.56,0,0,1,1-2.21l5-5.86H63.25c-.91,0-1.43-.3-1.57-.89a4.59,4.59,0,0,1-.14-1q0-1.92,1.65-1.92h8.09a1.91,1.91,0,0,1,1.55.6,2.39,2.39,0,0,1,.51,1.61,3.6,3.6,0,0,1-1,2.2L67.51,26.2H72c.9,0,1.43.3,1.56.9a4.65,4.65,0,0,1,.15,1c0,1.27-.55,1.91-1.65,1.91Z" transform="translate(-0.44 -11.93)" fill="#fff"/>
      <path d="M77,22.59q-.77-2.34-1.38-4.77a2.25,2.25,0,0,1-.09-.61A1.32,1.32,0,0,1,76.25,16a3.2,3.2,0,0,1,1.7-.42,2.87,2.87,0,0,1,1.74.45,2.78,2.78,0,0,1,.93,1.55l2.29,8H83c.38-1.08.79-2.43,1.21-4s.76-3,1-4.28A1.71,1.71,0,0,1,86,16a3.62,3.62,0,0,1,1.69-.33c1.57,0,2.35.64,2.35,1.94a14.66,14.66,0,0,1-.68,3.8,44.23,44.23,0,0,1-1.78,5,38.28,38.28,0,0,1-2.44,4.85,11.36,11.36,0,0,1-2.43,3,3.94,3.94,0,0,1-2.61.9,3,3,0,0,1-1.53-.39,2.57,2.57,0,0,1-1-1.09,1.49,1.49,0,0,1-.17-.63,1.72,1.72,0,0,1,.72-1.22,17.85,17.85,0,0,0,2.64-2.7,3,3,0,0,1-1-.69,7.15,7.15,0,0,1-1.25-2A34.17,34.17,0,0,1,77,22.59Z" transform="translate(-0.44 -11.93)" fill="#fff"/>
    </g>
  </g>
</svg>
