<svg id="Group_122" data-name="Group 122" xmlns="http://www.w3.org/2000/svg" width="41.545" height="47.245" viewBox="0 0 41.545 47.245">
  <path id="Path_152" data-name="Path 152" d="M69.23,201.453a.456.456,0,0,0-.413-.383c-.172-.014-3.8-.283-3.8-.283s-2.522-2.5-2.8-2.781a1.148,1.148,0,0,0-1.028-.131l-1.411.436c-.843-2.424-2.329-4.652-4.945-4.652-.072,0-.146,0-.221.007a3.179,3.179,0,0,0-2.461-1.411c-6.093,0-9,7.617-9.917,11.488l-4.264,1.323c-1.322.414-1.363.456-1.537,1.7-.131.943-3.589,27.685-3.589,27.685L59.788,239.5l14.6-3.159S69.263,201.69,69.23,201.453Zm-10.943-2.682-2.28.706c0-.161,0-.319,0-.491a11.185,11.185,0,0,0-.545-3.682C56.812,195.472,57.71,197.006,58.288,198.771ZM53.793,195.6a11.306,11.306,0,0,1,.618,4.1c0,.093,0,.178,0,.264L49.7,201.429C50.607,197.929,52.307,196.239,53.793,195.6Zm-1.81-1.714a1.375,1.375,0,0,1,.781.264c-1.953.919-4.046,3.233-4.93,7.855l-3.722,1.153C45.147,199.634,47.606,193.888,51.983,193.888Z" transform="translate(-32.843 -192.254)" fill="#95bf47"/>
  <path id="Path_153" data-name="Path 153" d="M112.87,210.179c-.172-.014-3.8-.283-3.8-.283s-2.522-2.5-2.8-2.78a.689.689,0,0,0-.389-.179l-2.037,41.672,14.6-3.158s-5.125-34.65-5.158-34.888A.456.456,0,0,0,112.87,210.179Z" transform="translate(-76.895 -201.364)" fill="#5e8e3e"/>
  <path id="Path_154" data-name="Path 154" d="M65.25,235.583l-1.8,5.355a8.282,8.282,0,0,0-3.511-.842c-2.834,0-2.977,1.779-2.977,2.227,0,2.446,6.375,3.383,6.375,9.111,0,4.507-2.859,7.409-6.713,7.409a9.339,9.339,0,0,1-6.991-2.879l1.238-4.092s2.431,2.087,4.483,2.087a1.809,1.809,0,0,0,1.886-1.827c0-3.19-5.23-3.333-5.23-8.575,0-4.412,3.167-8.682,9.559-8.682A7.864,7.864,0,0,1,65.25,235.583Z" transform="translate(-43.261 -218.7)" fill="#fff"/>
</svg>
