<svg id="brands-and-logotypes" xmlns="http://www.w3.org/2000/svg" width="46.11" height="46.109" viewBox="0 0 46.11 46.109">
  <path id="Path_147" data-name="Path 147" d="M74.784,47.014H72.237l6.942,19.623,3.886-11.106-3.013-8.518H77.366v-1.87h11.9v1.87H86.477l6.942,19.623,2.5-7.131c3.273-9.136-2.683-11.982-2.683-14.021a3.692,3.692,0,0,1,3.692-3.692c.11,0,.217.006.322.016a19.29,19.29,0,0,0-29.295,3.335h6.833v1.87Z" transform="translate(-60.952 -32.784)" fill="#00769d"/>
  <path id="Path_148" data-name="Path 148" d="M36.548,157.942a19.286,19.286,0,0,0,10.247,17.042l-8.705-24.608A19.227,19.227,0,0,0,36.548,157.942Z" transform="translate(-32.784 -134.887)" fill="#00769d"/>
  <path id="Path_149" data-name="Path 149" d="M319.589,131.547a13.636,13.636,0,0,1-.231,5.284h.077l-.292.833h0a17.967,17.967,0,0,1-.638,1.822l-6.638,18.6a19.3,19.3,0,0,0,7.721-26.535Z" transform="translate(-279.746 -117.998)" fill="#00769d"/>
  <path id="Path_150" data-name="Path 150" d="M166.075,263.844a19.381,19.381,0,0,0,11.639.083l-5.643-15.951Z" transform="translate(-148.97 -222.436)" fill="#00769d"/>
  <path id="Path_151" data-name="Path 151" d="M39.357,6.753a23.055,23.055,0,1,0-32.6,32.6,23.055,23.055,0,1,0,32.6-32.6Zm-16.3,37.731A21.428,21.428,0,1,1,44.483,23.055,21.453,21.453,0,0,1,23.055,44.483Z" transform="translate(0 0)" fill="#00769d"/>
</svg>
